#!OML:ASF G:\JayActor3\Patient Classification 1\Patient 1\Session 6\male.ASF
:FULLY-SPECIFIED
:DEGREES
1541
root -4.12651 15.3785 4.10037 -185.362 -83.2477 198.564
lowerback 30.1091 -2.82302 7.47539
upperback 4.57677 -1.21339 6.59601
thorax -10.6275 -1.06566 3.51639
lowerneck 12.6508 -6.33027 3.06398
upperneck -33.2791 -7.86829 5.99507
head -13.1313 -5.26325 3.10972
rclavicle -5.88403e-014 1.38354e-013
rhumerus -32.7207 8.06463 -80.5352
rradius 127.484
rwrist 13.5644
rhand 15.2022 -21.042
rfingers 7.12502
rthumb 40.0419 -46.2554
lclavicle -5.88403e-014 1.38354e-013
lhumerus -40.1837 -6.09289 87.7511
lradius 127.446
lwrist 6.69973
lhand 0.820564 38.6004
lfingers 7.12502
lthumb 26.3761 66.7859
rfemur -48.6139 6.78355 6.22557
rtibia 54.1266
rfoot -16.2525 12.0368
rtoes -1.84334
lfemur -45.341 16.8197 -16.411
ltibia 56.4856
lfoot -22.4531 0.889629
ltoes -4.87573
1542
root -4.12258 15.37 4.13961 -186.175 -83.1274 199.449
lowerback 30.1361 -2.77264 7.40378
upperback 4.59023 -1.17199 6.58063
thorax -10.6253 -1.04456 3.52318
lowerneck 12.695 -6.27905 3.05479
upperneck -33.3058 -7.7784 6.04206
head -13.1515 -5.22943 3.12094
rclavicle -1.03368e-014 4.13472e-014
rhumerus -32.7099 8.11705 -80.5685
rradius 127.465
rwrist 13.5515
rhand 15.221 -21.0527
rfingers 7.12502
rthumb 40.0596 -46.2607
lclavicle -1.03368e-014 4.13472e-014
lhumerus -40.1186 -6.10573 87.6354
lradius 127.451
lwrist 6.70951
lhand 0.834417 38.6075
lfingers 7.12502
lthumb 26.3894 66.791
rfemur -48.7071 6.7978 6.19738
rtibia 54.0418
rfoot -16.1689 12.0761
rtoes -1.86278
lfemur -45.6076 16.8769 -16.4556
ltibia 56.7694
lfoot -22.5599 0.912843
ltoes -4.7254
1543
root -4.11849 15.3612 4.17863 -187.073 -82.9941 200.416
lowerback 30.1681 -2.7207 7.34442
upperback 4.60779 -1.12523 6.56708
thorax -10.6206 -1.02173 3.52357
lowerneck 12.7409 -6.23062 3.04523
upperneck -33.3347 -7.6937 6.08637
head -13.1732 -5.19761 3.13218
rclavicle 4.05521e-014 -6.04305e-014
rhumerus -32.6988 8.17369 -80.6031
rradius 127.447
rwrist 13.5447
rhand 15.2294 -21.0499
rfingers 7.12502
rthumb 40.0676 -46.2556
lclavicle 4.05521e-014 -6.04305e-014
lhumerus -40.0476 -6.11919 87.5177
lradius 127.457
lwrist 6.7056
lhand 0.843831 38.5915
lfingers 7.12502
lthumb 26.3984 66.7737
rfemur -48.7995 6.83469 6.18406
rtibia 53.9551
rfoot -16.0916 12.0977
rtoes -1.90791
lfemur -45.8734 16.9464 -16.4801
ltibia 57.0575
lfoot -22.6678 0.926289
ltoes -4.56339
1544
root -4.11415 15.352 4.21777 -188.084 -82.8553 201.49
lowerback 30.2068 -2.67469 7.30957
upperback 4.62989 -1.07903 6.55242
thorax -10.6133 -1.00034 3.51013
lowerneck 12.7859 -6.18391 3.03756
upperneck -33.3613 -7.6119 6.12773
head -13.1939 -5.16689 3.1422
rclavicle -4.77083e-014 6.99722e-014
rhumerus -32.6821 8.23643 -80.6431
rradius 127.428
rwrist 13.54
rhand 15.2442 -21.0413
rfingers 7.12502
rthumb 40.0815 -46.2427
lclavicle -4.77083e-014 6.99722e-014
lhumerus -39.9708 -6.13309 87.3927
lradius 127.467
lwrist 6.69404
lhand 0.855481 38.5583
lfingers 7.12502
lthumb 26.4095 66.7387
rfemur -48.8844 6.87815 6.19097
rtibia 53.865
rfoot -16.0171 12.1094
rtoes -1.98902
lfemur -46.1354 17.0198 -16.4831
ltibia 57.3465
lfoot -22.7726 0.937486
ltoes -4.40536
1545
root -4.10956 15.3433 4.25778 -189.062 -82.7253 202.525
lowerback 30.2618 -2.63569 7.28422
upperback 4.64887 -1.03668 6.53908
thorax -10.6161 -0.981285 3.49532
lowerneck 12.8263 -6.14066 3.03153
upperneck -33.3765 -7.5399 6.15166
head -13.2095 -5.13786 3.14549
rclavicle -6.2816e-014 3.18055e-014
rhumerus -32.6646 8.30874 -80.6724
rradius 127.406
rwrist 13.5328
rhand 15.2434 -21.0287
rfingers 7.12502
rthumb 40.0807 -46.2304
lclavicle -6.2816e-014 3.18055e-014
lhumerus -39.8956 -6.14396 87.2759
lradius 127.481
lwrist 6.68067
lhand 0.868495 38.5172
lfingers 7.12502
lthumb 26.422 66.6957
rfemur -48.9529 6.90413 6.19597
rtibia 53.7703
rfoot -15.9416 12.1278
rtoes -2.0849
lfemur -46.3871 17.0808 -16.4922
ltibia 57.629
lfoot -22.8782 0.952315
ltoes -4.25334
1546
root -4.10449 15.3353 4.29932 -189.87 -82.6201 203.385
lowerback 30.326 -2.61269 7.26717
upperback 4.66645 -1.0118 6.51342
thorax -10.6241 -0.970445 3.46965
lowerneck 12.8582 -6.0995 3.02904
upperneck -33.3786 -7.47326 6.16509
head -13.2183 -5.10985 3.14349
rclavicle -2.70347e-014 -7.15625e-015
rhumerus -32.6394 8.38843 -80.7018
rradius 127.381
rwrist 13.5245
rhand 15.2355 -21.0179
rfingers 7.12502
rthumb 40.0733 -46.2218
lclavicle -2.70347e-014 -7.15625e-015
lhumerus -39.8153 -6.15318 87.1576
lradius 127.499
lwrist 6.66607
lhand 0.877092 38.4721
lfingers 7.12502
lthumb 26.4302 66.6494
rfemur -49.0047 6.88727 6.17567
rtibia 53.6726
rfoot -15.8616 12.1689
rtoes -2.18402
lfemur -46.6278 17.1099 -16.5354
ltibia 57.8985
lfoot -22.9838 0.979788
ltoes -4.1077
